<svg width="227" height="96" viewBox="0 0 227 96" fill="none" xmlns="http://www.w3.org/2000/svg">
<g filter="url(#filter0_b_161_913)">
<path d="M8 54.6124H17.0353V63.0454C17.5516 60.2918 18.4838 58.1262 19.8319 56.5486C21.1801 54.9423 23.0158 54.1392 25.3392 54.1392C27.8633 54.1392 29.7277 54.8706 30.9324 56.3334C32.1658 57.7963 32.8399 59.8472 32.9546 62.486C33.5283 59.9045 34.4892 57.868 35.8373 56.3765C37.1854 54.8849 38.9925 54.1392 41.2585 54.1392C43.9261 54.1392 45.8909 54.971 47.1529 56.6346C48.4437 58.2983 49.0891 60.5499 49.0891 63.3896V78.7066H39.9677V66.4874C39.9677 64.7951 39.7383 63.533 39.2793 62.7012C38.8491 61.8694 37.9742 61.4534 36.6548 61.4534C35.4214 61.4534 34.5179 61.9554 33.9442 62.9593C33.3705 63.9632 33.0837 65.4118 33.0837 67.3049V78.7066H24.0054V66.4874C24.0054 64.8238 23.7759 63.576 23.317 62.7442C22.858 61.8837 21.9689 61.4534 20.6494 61.4534C19.3587 61.4534 18.4408 61.9554 17.8958 62.9593C17.3508 63.9346 17.0783 65.3687 17.0783 67.2619V78.7066H8V54.6124Z" fill="white"/>
<path d="M64.605 79.1368C63.4864 79.1368 62.4251 79.0508 61.4212 78.8787C60.4459 78.7352 59.5281 78.5201 58.6676 78.2333C57.8071 77.9178 57.0183 77.5449 56.3012 77.1146C55.6128 76.6844 54.9817 76.1967 54.4081 75.6518C53.8344 75.1068 53.3324 74.5044 52.9022 73.8447C52.5006 73.185 52.1564 72.4822 51.8696 71.7365C51.5827 70.962 51.3676 70.1589 51.2242 69.3271C51.0808 68.4952 51.0091 67.6204 51.0091 66.7025C51.0091 65.8133 51.0808 64.9528 51.2242 64.121C51.3963 63.2605 51.6258 62.4574 51.9126 61.7116C52.1994 60.9371 52.558 60.2201 52.9882 59.5603C53.4472 58.9006 53.9635 58.2983 54.5371 57.7533C55.1108 57.1796 55.7562 56.6776 56.4733 56.2474C57.1904 55.7885 57.9648 55.4012 58.7966 55.0857C59.6571 54.7702 60.5607 54.5407 61.5072 54.3973C62.4825 54.2252 63.5151 54.1392 64.605 54.1392C65.7237 54.1392 66.7706 54.2252 67.7459 54.3973C68.7498 54.5407 69.6677 54.7702 70.4995 55.0857C71.36 55.4012 72.1488 55.7741 72.8659 56.2044C73.583 56.6346 74.2283 57.1366 74.802 57.7103C75.3757 58.2552 75.8776 58.8719 76.3079 59.5603C76.7381 60.2201 77.0967 60.9228 77.3835 61.6686C77.699 62.4143 77.9285 63.2175 78.0719 64.078C78.2153 64.9098 78.2871 65.7703 78.2871 66.6595C78.2871 67.5487 78.2153 68.4092 78.0719 69.241C77.9285 70.0728 77.699 70.8616 77.3835 71.6074C77.0967 72.3532 76.7381 73.0559 76.3079 73.7156C75.8776 74.3753 75.3757 74.992 74.802 75.5657C74.2283 76.1107 73.583 76.6127 72.8659 77.0716C72.1488 77.5018 71.36 77.8747 70.4995 78.1902C69.6677 78.5058 68.7498 78.7352 67.7459 78.8787C66.7706 79.0508 65.7237 79.1368 64.605 79.1368ZM64.6481 72.0807C66.197 72.0807 67.2869 71.6074 67.918 70.6608C68.549 69.7143 68.8645 68.3518 68.8645 66.5734C68.8645 64.7377 68.5203 63.3609 67.8319 62.443C67.1722 61.5252 66.1109 61.0662 64.6481 61.0662C63.1852 61.0662 62.1096 61.5395 61.4212 62.486C60.7328 63.4039 60.3886 64.7664 60.3886 66.5734C60.3599 68.4092 60.6897 69.786 61.3781 70.7039C62.0666 71.6217 63.1565 72.0807 64.6481 72.0807Z" fill="white"/>
<path d="M93.5546 79.1368C92.436 79.1368 91.3747 79.0508 90.3708 78.8787C89.3955 78.7352 88.4776 78.5201 87.6171 78.2333C86.7566 77.9178 85.9678 77.5449 85.2507 77.1146C84.5623 76.6844 83.9313 76.1967 83.3576 75.6518C82.784 75.1068 82.282 74.5044 81.8518 73.8447C81.4502 73.185 81.106 72.4822 80.8192 71.7365C80.5323 70.962 80.3172 70.1589 80.1738 69.3271C80.0304 68.4952 79.9586 67.6204 79.9586 66.7025C79.9586 65.8133 80.0304 64.9528 80.1738 64.121C80.3459 63.2605 80.5753 62.4574 80.8622 61.7116C81.149 60.9371 81.5076 60.2201 81.9378 59.5603C82.3967 58.9006 82.913 58.2983 83.4867 57.7533C84.0604 57.1796 84.7058 56.6776 85.4228 56.2474C86.1399 55.7885 86.9144 55.4012 87.7462 55.0857C88.6067 54.7702 89.5102 54.5407 90.4568 54.3973C91.432 54.2252 92.4646 54.1392 93.5546 54.1392C94.6733 54.1392 95.7202 54.2252 96.6955 54.3973C97.6994 54.5407 98.6173 54.7702 99.4491 55.0857C100.31 55.4012 101.098 55.7741 101.815 56.2044C102.533 56.6346 103.178 57.1366 103.752 57.7103C104.325 58.2552 104.827 58.8719 105.257 59.5603C105.688 60.2201 106.046 60.9228 106.333 61.6686C106.649 62.4143 106.878 63.2175 107.022 64.078C107.165 64.9098 107.237 65.7703 107.237 66.6595C107.237 67.5487 107.165 68.4092 107.022 69.241C106.878 70.0728 106.649 70.8616 106.333 71.6074C106.046 72.3532 105.688 73.0559 105.257 73.7156C104.827 74.3753 104.325 74.992 103.752 75.5657C103.178 76.1107 102.533 76.6127 101.815 77.0716C101.098 77.5018 100.31 77.8747 99.4491 78.1902C98.6173 78.5058 97.6994 78.7352 96.6955 78.8787C95.7202 79.0508 94.6733 79.1368 93.5546 79.1368ZM93.5976 72.0807C95.1465 72.0807 96.2365 71.6074 96.8676 70.6608C97.4986 69.7143 97.8141 68.3518 97.8141 66.5734C97.8141 64.7377 97.4699 63.3609 96.7815 62.443C96.1218 61.5252 95.0605 61.0662 93.5976 61.0662C92.1348 61.0662 91.0592 61.5395 90.3708 62.486C89.6823 63.4039 89.3381 64.7664 89.3381 66.5734C89.3095 68.4092 89.6393 69.786 90.3277 70.7039C91.0161 71.6217 92.1061 72.0807 93.5976 72.0807Z" fill="white"/>
<path d="M109.218 78.7066V54.6124H118.34V62.9163C118.856 60.1627 119.788 58.0114 121.136 56.4625C122.485 54.9136 124.335 54.1392 126.687 54.1392C129.383 54.1392 131.405 54.971 132.753 56.6346C134.13 58.2983 134.818 60.5499 134.818 63.3896V78.7066H125.611V66.4874C125.611 64.7951 125.353 63.533 124.837 62.7012C124.349 61.8694 123.431 61.4534 122.083 61.4534C120.764 61.4534 119.817 61.9554 119.243 62.9593C118.67 63.9346 118.383 65.3687 118.383 67.2619V78.7066H109.218Z" fill="white"/>
<path d="M136.765 66.6595C136.765 65.6269 136.823 64.666 136.937 63.7768C137.081 62.8589 137.282 62.0271 137.54 61.2813C137.798 60.5069 138.099 59.8041 138.443 59.1731C138.788 58.5134 139.175 57.9254 139.605 57.4091C140.064 56.8928 140.552 56.4482 141.068 56.0753C141.613 55.6737 142.172 55.3439 142.746 55.0857C143.348 54.8276 143.965 54.6411 144.596 54.5264C145.256 54.383 145.93 54.3113 146.618 54.3113C148.827 54.3113 150.519 54.928 151.695 56.1613C152.9 57.366 153.732 59.1014 154.191 61.3674L154.148 60.5069V44.9748H163.269V78.7066H154.191V73.4145L154.363 70.2736C153.904 72.7691 153.086 74.8486 151.91 76.5123C150.763 78.1472 148.87 78.9647 146.231 78.9647C143.277 78.9647 140.953 77.9178 139.261 75.8239C137.597 73.73 136.765 70.6752 136.765 66.6595ZM154.492 66.5734C154.492 64.6803 154.133 63.2892 153.416 62.4C152.699 61.5108 151.609 61.0662 150.146 61.0662C148.769 61.0662 147.722 61.5252 147.005 62.443C146.317 63.3609 145.973 64.7377 145.973 66.5734C145.944 68.3805 146.26 69.7573 146.919 70.7039C147.608 71.6217 148.712 72.0807 150.232 72.0807C151.638 72.0807 152.699 71.6361 153.416 70.7469C154.133 69.829 154.492 68.4379 154.492 66.5734Z" fill="white"/>
<path d="M165.082 73.8877C165.082 72.5683 165.426 71.4927 166.114 70.6608C166.831 69.829 167.764 69.1263 168.911 68.5526C170.23 67.9216 171.679 67.4339 173.256 67.0897C174.834 66.7455 176.498 66.344 178.247 65.885C179.509 65.5408 180.384 65.1966 180.872 64.8524C181.36 64.5082 181.603 64.035 181.603 63.4326C181.603 62.8016 181.345 62.2709 180.829 61.8407C180.341 61.4104 179.524 61.1953 178.376 61.1953C177.143 61.1953 176.053 61.5538 175.107 62.2709C174.16 62.9593 173.357 64.035 172.697 65.4978L165.039 60.8941C166.53 58.8289 168.409 57.1939 170.675 55.9892C172.97 54.7559 175.609 54.1392 178.592 54.1392C182.378 54.1392 185.232 54.971 187.154 56.6346C189.104 58.2983 190.079 60.7077 190.079 63.8629V69.9294C190.079 70.6465 190.194 71.1628 190.424 71.4783C190.653 71.7652 191.04 71.9086 191.585 71.9086C191.815 71.9086 192.015 71.8942 192.188 71.8655C192.388 71.8082 192.575 71.7652 192.747 71.7365V78.2333C192.116 78.4054 191.341 78.5631 190.424 78.7066C189.534 78.8787 188.602 78.9647 187.627 78.9647C185.533 78.9647 183.97 78.5488 182.937 77.717C181.905 76.8852 181.403 75.4653 181.431 73.4575L181.517 70.919C181.345 71.6074 181.13 72.2671 180.872 72.8982C180.614 73.5005 180.313 74.0885 179.968 74.6622C179.624 75.2072 179.237 75.7235 178.807 76.2111C178.376 76.67 177.903 77.0859 177.387 77.4588C176.871 77.8317 176.311 78.1616 175.709 78.4484C175.135 78.7066 174.519 78.9073 173.859 79.0508C173.199 79.1942 172.496 79.2659 171.751 79.2659C169.571 79.2659 167.907 78.7639 166.76 77.76C165.641 76.7561 165.082 75.4653 165.082 73.8877ZM181.646 67.6921V65.4548C181.474 65.8277 181.144 66.1719 180.657 66.4874C180.169 66.7742 179.395 67.0611 178.333 67.3479C176.813 67.7208 175.709 68.1797 175.021 68.7247C174.332 69.241 173.988 69.9151 173.988 70.7469C173.988 71.3779 174.232 71.8942 174.719 72.2958C175.207 72.6974 175.924 72.8982 176.871 72.8982C178.305 72.8982 179.438 72.4249 180.27 71.4783C181.13 70.5031 181.589 69.241 181.646 67.6921Z" fill="white"/>
<path d="M189.725 54.6124H199.105L203.192 65.0245L203.881 67.606L204.612 65.0245L208.699 54.6124H218.079L204.096 88H194.458L198.976 77.5449L189.725 54.6124Z" fill="white"/>
<path fill-rule="evenodd" clip-rule="evenodd" d="M8 24.8067C8 15.5246 15.5246 8 24.8067 8H71.8655C81.1476 8 88.6723 15.5246 88.6723 24.8067C88.6723 34.0888 81.1476 41.6134 71.8655 41.6134H24.8067C15.5246 41.6134 8 34.0888 8 24.8067ZM35.8158 31.67C34.5943 31.5065 33.4362 31.1506 32.4047 30.4387C30.8122 29.3421 29.9526 27.7838 29.8169 25.7733C29.8048 25.5616 29.8089 25.35 29.8129 25.1384C29.8149 25.0326 29.8169 24.9268 29.8169 24.8209C29.7264 23.1664 30.1064 21.6657 31.1289 20.3863C32.0247 19.2705 33.1919 18.626 34.5039 18.2508C36.2683 17.7602 38.0598 17.7121 39.8423 18.068C39.8694 18.068 39.9056 18.0777 39.9328 18.0873C38.4489 16.3942 36.4764 15.5189 34.2777 15.0667C31.6989 14.5377 29.1111 14.6146 26.5595 15.3265C24.6685 15.8555 22.9765 16.7983 21.6826 18.4047C20.1987 20.2517 19.6558 22.4257 19.7825 24.8113C19.7825 24.9616 19.7795 25.113 19.7764 25.2648C19.7704 25.5694 19.7643 25.8755 19.7825 26.1773C19.9815 29.0824 21.2302 31.343 23.5284 32.9206C25.0304 33.9499 26.7043 34.4597 28.4597 34.7002C31.3189 35.0946 34.1238 34.9214 36.8202 33.7575C38.0327 33.238 39.0822 32.5069 39.9328 31.5257C38.5846 31.824 37.2093 31.8336 35.8068 31.6412L35.8158 31.67ZM55.417 18.4073C53.8395 20.2507 53.2624 22.4206 53.397 24.8113C53.397 24.9653 53.3938 25.1193 53.3906 25.2729C53.3842 25.5791 53.3778 25.8838 53.397 26.1843C53.6086 29.0838 54.936 31.3401 57.3792 32.9243C58.976 33.9517 60.7555 34.4605 62.6311 34.7006C65.6707 35.0942 68.6622 34.9214 71.5286 33.7596C73.5389 32.9435 75.1357 31.6378 76.1553 29.6791C77.2711 27.5189 77.3576 25.2242 77.0787 22.8911C76.9344 21.6813 76.5496 20.5388 75.9052 19.4922C74.2796 16.8423 71.7306 15.623 68.8161 15.0661C66.0651 14.538 63.3141 14.6148 60.6016 15.3253C58.5912 15.863 56.7925 16.7943 55.417 18.4073Z" fill="white"/>
<path d="M8 54.6124H17.0353V63.0454C17.5516 60.2918 18.4838 58.1262 19.8319 56.5486C21.1801 54.9423 23.0158 54.1392 25.3392 54.1392C27.8633 54.1392 29.7277 54.8706 30.9324 56.3334C32.1658 57.7963 32.8399 59.8472 32.9546 62.486C33.5283 59.9045 34.4892 57.868 35.8373 56.3765C37.1854 54.8849 38.9925 54.1392 41.2585 54.1392C43.9261 54.1392 45.8909 54.971 47.1529 56.6346C48.4437 58.2983 49.0891 60.5499 49.0891 63.3896V78.7066H39.9677V66.4874C39.9677 64.7951 39.7383 63.533 39.2793 62.7012C38.8491 61.8694 37.9742 61.4534 36.6548 61.4534C35.4214 61.4534 34.5179 61.9554 33.9442 62.9593C33.3705 63.9632 33.0837 65.4118 33.0837 67.3049V78.7066H24.0054V66.4874C24.0054 64.8238 23.7759 63.576 23.317 62.7442C22.858 61.8837 21.9689 61.4534 20.6494 61.4534C19.3587 61.4534 18.4408 61.9554 17.8958 62.9593C17.3508 63.9346 17.0783 65.3687 17.0783 67.2619V78.7066H8V54.6124Z" stroke="white" stroke-opacity="0.16"/>
<path d="M64.605 79.1368C63.4864 79.1368 62.4251 79.0508 61.4212 78.8787C60.4459 78.7352 59.5281 78.5201 58.6676 78.2333C57.8071 77.9178 57.0183 77.5449 56.3012 77.1146C55.6128 76.6844 54.9817 76.1967 54.4081 75.6518C53.8344 75.1068 53.3324 74.5044 52.9022 73.8447C52.5006 73.185 52.1564 72.4822 51.8696 71.7365C51.5827 70.962 51.3676 70.1589 51.2242 69.3271C51.0808 68.4952 51.0091 67.6204 51.0091 66.7025C51.0091 65.8133 51.0808 64.9528 51.2242 64.121C51.3963 63.2605 51.6258 62.4574 51.9126 61.7116C52.1994 60.9371 52.558 60.2201 52.9882 59.5603C53.4472 58.9006 53.9635 58.2983 54.5371 57.7533C55.1108 57.1796 55.7562 56.6776 56.4733 56.2474C57.1904 55.7885 57.9648 55.4012 58.7966 55.0857C59.6571 54.7702 60.5607 54.5407 61.5072 54.3973C62.4825 54.2252 63.5151 54.1392 64.605 54.1392C65.7237 54.1392 66.7706 54.2252 67.7459 54.3973C68.7498 54.5407 69.6677 54.7702 70.4995 55.0857C71.36 55.4012 72.1488 55.7741 72.8659 56.2044C73.583 56.6346 74.2283 57.1366 74.802 57.7103C75.3757 58.2552 75.8776 58.8719 76.3079 59.5603C76.7381 60.2201 77.0967 60.9228 77.3835 61.6686C77.699 62.4143 77.9285 63.2175 78.0719 64.078C78.2153 64.9098 78.2871 65.7703 78.2871 66.6595C78.2871 67.5487 78.2153 68.4092 78.0719 69.241C77.9285 70.0728 77.699 70.8616 77.3835 71.6074C77.0967 72.3532 76.7381 73.0559 76.3079 73.7156C75.8776 74.3753 75.3757 74.992 74.802 75.5657C74.2283 76.1107 73.583 76.6127 72.8659 77.0716C72.1488 77.5018 71.36 77.8747 70.4995 78.1902C69.6677 78.5058 68.7498 78.7352 67.7459 78.8787C66.7706 79.0508 65.7237 79.1368 64.605 79.1368ZM64.6481 72.0807C66.197 72.0807 67.2869 71.6074 67.918 70.6608C68.549 69.7143 68.8645 68.3518 68.8645 66.5734C68.8645 64.7377 68.5203 63.3609 67.8319 62.443C67.1722 61.5252 66.1109 61.0662 64.6481 61.0662C63.1852 61.0662 62.1096 61.5395 61.4212 62.486C60.7328 63.4039 60.3886 64.7664 60.3886 66.5734C60.3599 68.4092 60.6897 69.786 61.3781 70.7039C62.0666 71.6217 63.1565 72.0807 64.6481 72.0807Z" stroke="white" stroke-opacity="0.16"/>
<path d="M93.5546 79.1368C92.436 79.1368 91.3747 79.0508 90.3708 78.8787C89.3955 78.7352 88.4776 78.5201 87.6171 78.2333C86.7566 77.9178 85.9678 77.5449 85.2507 77.1146C84.5623 76.6844 83.9313 76.1967 83.3576 75.6518C82.784 75.1068 82.282 74.5044 81.8518 73.8447C81.4502 73.185 81.106 72.4822 80.8192 71.7365C80.5323 70.962 80.3172 70.1589 80.1738 69.3271C80.0304 68.4952 79.9586 67.6204 79.9586 66.7025C79.9586 65.8133 80.0304 64.9528 80.1738 64.121C80.3459 63.2605 80.5753 62.4574 80.8622 61.7116C81.149 60.9371 81.5076 60.2201 81.9378 59.5603C82.3967 58.9006 82.913 58.2983 83.4867 57.7533C84.0604 57.1796 84.7058 56.6776 85.4228 56.2474C86.1399 55.7885 86.9144 55.4012 87.7462 55.0857C88.6067 54.7702 89.5102 54.5407 90.4568 54.3973C91.432 54.2252 92.4646 54.1392 93.5546 54.1392C94.6733 54.1392 95.7202 54.2252 96.6955 54.3973C97.6994 54.5407 98.6173 54.7702 99.4491 55.0857C100.31 55.4012 101.098 55.7741 101.815 56.2044C102.533 56.6346 103.178 57.1366 103.752 57.7103C104.325 58.2552 104.827 58.8719 105.257 59.5603C105.688 60.2201 106.046 60.9228 106.333 61.6686C106.649 62.4143 106.878 63.2175 107.022 64.078C107.165 64.9098 107.237 65.7703 107.237 66.6595C107.237 67.5487 107.165 68.4092 107.022 69.241C106.878 70.0728 106.649 70.8616 106.333 71.6074C106.046 72.3532 105.688 73.0559 105.257 73.7156C104.827 74.3753 104.325 74.992 103.752 75.5657C103.178 76.1107 102.533 76.6127 101.815 77.0716C101.098 77.5018 100.31 77.8747 99.4491 78.1902C98.6173 78.5058 97.6994 78.7352 96.6955 78.8787C95.7202 79.0508 94.6733 79.1368 93.5546 79.1368ZM93.5976 72.0807C95.1465 72.0807 96.2365 71.6074 96.8676 70.6608C97.4986 69.7143 97.8141 68.3518 97.8141 66.5734C97.8141 64.7377 97.4699 63.3609 96.7815 62.443C96.1218 61.5252 95.0605 61.0662 93.5976 61.0662C92.1348 61.0662 91.0592 61.5395 90.3708 62.486C89.6823 63.4039 89.3381 64.7664 89.3381 66.5734C89.3095 68.4092 89.6393 69.786 90.3277 70.7039C91.0161 71.6217 92.1061 72.0807 93.5976 72.0807Z" stroke="white" stroke-opacity="0.16"/>
<path d="M109.218 78.7066V54.6124H118.34V62.9163C118.856 60.1627 119.788 58.0114 121.136 56.4625C122.485 54.9136 124.335 54.1392 126.687 54.1392C129.383 54.1392 131.405 54.971 132.753 56.6346C134.13 58.2983 134.818 60.5499 134.818 63.3896V78.7066H125.611V66.4874C125.611 64.7951 125.353 63.533 124.837 62.7012C124.349 61.8694 123.431 61.4534 122.083 61.4534C120.764 61.4534 119.817 61.9554 119.243 62.9593C118.67 63.9346 118.383 65.3687 118.383 67.2619V78.7066H109.218Z" stroke="white" stroke-opacity="0.16"/>
<path d="M136.765 66.6595C136.765 65.6269 136.823 64.666 136.937 63.7768C137.081 62.8589 137.282 62.0271 137.54 61.2813C137.798 60.5069 138.099 59.8041 138.443 59.1731C138.788 58.5134 139.175 57.9254 139.605 57.4091C140.064 56.8928 140.552 56.4482 141.068 56.0753C141.613 55.6737 142.172 55.3439 142.746 55.0857C143.348 54.8276 143.965 54.6411 144.596 54.5264C145.256 54.383 145.93 54.3113 146.618 54.3113C148.827 54.3113 150.519 54.928 151.695 56.1613C152.9 57.366 153.732 59.1014 154.191 61.3674L154.148 60.5069V44.9748H163.269V78.7066H154.191V73.4145L154.363 70.2736C153.904 72.7691 153.086 74.8486 151.91 76.5123C150.763 78.1472 148.87 78.9647 146.231 78.9647C143.277 78.9647 140.953 77.9178 139.261 75.8239C137.597 73.73 136.765 70.6752 136.765 66.6595ZM154.492 66.5734C154.492 64.6803 154.133 63.2892 153.416 62.4C152.699 61.5108 151.609 61.0662 150.146 61.0662C148.769 61.0662 147.722 61.5252 147.005 62.443C146.317 63.3609 145.973 64.7377 145.973 66.5734C145.944 68.3805 146.26 69.7573 146.919 70.7039C147.608 71.6217 148.712 72.0807 150.232 72.0807C151.638 72.0807 152.699 71.6361 153.416 70.7469C154.133 69.829 154.492 68.4379 154.492 66.5734Z" stroke="white" stroke-opacity="0.16"/>
<path d="M165.082 73.8877C165.082 72.5683 165.426 71.4927 166.114 70.6608C166.831 69.829 167.764 69.1263 168.911 68.5526C170.23 67.9216 171.679 67.4339 173.256 67.0897C174.834 66.7455 176.498 66.344 178.247 65.885C179.509 65.5408 180.384 65.1966 180.872 64.8524C181.36 64.5082 181.603 64.035 181.603 63.4326C181.603 62.8016 181.345 62.2709 180.829 61.8407C180.341 61.4104 179.524 61.1953 178.376 61.1953C177.143 61.1953 176.053 61.5538 175.107 62.2709C174.16 62.9593 173.357 64.035 172.697 65.4978L165.039 60.8941C166.53 58.8289 168.409 57.1939 170.675 55.9892C172.97 54.7559 175.609 54.1392 178.592 54.1392C182.378 54.1392 185.232 54.971 187.154 56.6346C189.104 58.2983 190.079 60.7077 190.079 63.8629V69.9294C190.079 70.6465 190.194 71.1628 190.424 71.4783C190.653 71.7652 191.04 71.9086 191.585 71.9086C191.815 71.9086 192.015 71.8942 192.188 71.8655C192.388 71.8082 192.575 71.7652 192.747 71.7365V78.2333C192.116 78.4054 191.341 78.5631 190.424 78.7066C189.534 78.8787 188.602 78.9647 187.627 78.9647C185.533 78.9647 183.97 78.5488 182.937 77.717C181.905 76.8852 181.403 75.4653 181.431 73.4575L181.517 70.919C181.345 71.6074 181.13 72.2671 180.872 72.8982C180.614 73.5005 180.313 74.0885 179.968 74.6622C179.624 75.2072 179.237 75.7235 178.807 76.2111C178.376 76.67 177.903 77.0859 177.387 77.4588C176.871 77.8317 176.311 78.1616 175.709 78.4484C175.135 78.7066 174.519 78.9073 173.859 79.0508C173.199 79.1942 172.496 79.2659 171.751 79.2659C169.571 79.2659 167.907 78.7639 166.76 77.76C165.641 76.7561 165.082 75.4653 165.082 73.8877ZM181.646 67.6921V65.4548C181.474 65.8277 181.144 66.1719 180.657 66.4874C180.169 66.7742 179.395 67.0611 178.333 67.3479C176.813 67.7208 175.709 68.1797 175.021 68.7247C174.332 69.241 173.988 69.9151 173.988 70.7469C173.988 71.3779 174.232 71.8942 174.719 72.2958C175.207 72.6974 175.924 72.8982 176.871 72.8982C178.305 72.8982 179.438 72.4249 180.27 71.4783C181.13 70.5031 181.589 69.241 181.646 67.6921Z" stroke="white" stroke-opacity="0.16"/>
<path d="M189.725 54.6124H199.105L203.192 65.0245L203.881 67.606L204.612 65.0245L208.699 54.6124H218.079L204.096 88H194.458L198.976 77.5449L189.725 54.6124Z" stroke="white" stroke-opacity="0.16"/>
<path fill-rule="evenodd" clip-rule="evenodd" d="M8 24.8067C8 15.5246 15.5246 8 24.8067 8H71.8655C81.1476 8 88.6723 15.5246 88.6723 24.8067C88.6723 34.0888 81.1476 41.6134 71.8655 41.6134H24.8067C15.5246 41.6134 8 34.0888 8 24.8067ZM35.8158 31.67C34.5943 31.5065 33.4362 31.1506 32.4047 30.4387C30.8122 29.3421 29.9526 27.7838 29.8169 25.7733C29.8048 25.5616 29.8089 25.35 29.8129 25.1384C29.8149 25.0326 29.8169 24.9268 29.8169 24.8209C29.7264 23.1664 30.1064 21.6657 31.1289 20.3863C32.0247 19.2705 33.1919 18.626 34.5039 18.2508C36.2683 17.7602 38.0598 17.7121 39.8423 18.068C39.8694 18.068 39.9056 18.0777 39.9328 18.0873C38.4489 16.3942 36.4764 15.5189 34.2777 15.0667C31.6989 14.5377 29.1111 14.6146 26.5595 15.3265C24.6685 15.8555 22.9765 16.7983 21.6826 18.4047C20.1987 20.2517 19.6558 22.4257 19.7825 24.8113C19.7825 24.9616 19.7795 25.113 19.7764 25.2648C19.7704 25.5694 19.7643 25.8755 19.7825 26.1773C19.9815 29.0824 21.2302 31.343 23.5284 32.9206C25.0304 33.9499 26.7043 34.4597 28.4597 34.7002C31.3189 35.0946 34.1238 34.9214 36.8202 33.7575C38.0327 33.238 39.0822 32.5069 39.9328 31.5257C38.5846 31.824 37.2093 31.8336 35.8068 31.6412L35.8158 31.67ZM55.417 18.4073C53.8395 20.2507 53.2624 22.4206 53.397 24.8113C53.397 24.9653 53.3938 25.1193 53.3906 25.2729C53.3842 25.5791 53.3778 25.8838 53.397 26.1843C53.6086 29.0838 54.936 31.3401 57.3792 32.9243C58.976 33.9517 60.7555 34.4605 62.6311 34.7006C65.6707 35.0942 68.6622 34.9214 71.5286 33.7596C73.5389 32.9435 75.1357 31.6378 76.1553 29.6791C77.2711 27.5189 77.3576 25.2242 77.0787 22.8911C76.9344 21.6813 76.5496 20.5388 75.9052 19.4922C74.2796 16.8423 71.7306 15.623 68.8161 15.0661C66.0651 14.538 63.3141 14.6148 60.6016 15.3253C58.5912 15.863 56.7925 16.7943 55.417 18.4073Z" stroke="white" stroke-opacity="0.16"/>
</g>
<defs>
<filter id="filter0_b_161_913" x="-24.5" y="-24.5" width="275.332" height="145" filterUnits="userSpaceOnUse" color-interpolation-filters="sRGB">
<feFlood flood-opacity="0" result="BackgroundImageFix"/>
<feGaussianBlur in="BackgroundImageFix" stdDeviation="16"/>
<feComposite in2="SourceAlpha" operator="in" result="effect1_backgroundBlur_161_913"/>
<feBlend mode="normal" in="SourceGraphic" in2="effect1_backgroundBlur_161_913" result="shape"/>
</filter>
</defs>
</svg>
